<svg width="16" height="16" viewBox="0 0 16 16" fill="none" xmlns="http://www.w3.org/2000/svg">
    <path fill-rule="evenodd" clip-rule="evenodd"
          d="M13.6711 2.34314C13.0384 1.71049 11.7733 1.83583 10.2628 2.54788C9.69829 0.980319 8.8934 0 8 0C7.11214 0 6.31169 0.968201 5.74776 2.51879C4.26479 1.83252 3.02568 1.71921 2.40174 2.34315C1.77329 2.97159 1.89279 4.22413 2.59234 5.72134C0.998881 6.28654 0 7.09819 0 8C0 8.89462 0.983002 9.70049 2.55431 10.2651C1.84912 11.7683 1.727 13.0265 2.35735 13.6569C2.98661 14.2861 4.24157 14.1655 5.74134 13.4635C6.30561 15.0244 7.10877 16 8 16C8.89681 16 9.70444 15.0122 10.2692 13.4341C11.7965 14.162 13.0775 14.2948 13.7154 13.6569C14.3489 13.0234 14.2224 11.7557 13.5079 10.2425C15.0429 9.67912 16 8.88276 16 8C16 7.11 15.0271 6.30783 13.47 5.74368C14.1788 4.23659 14.3026 2.97472 13.6711 2.34314Z"
          fill="#FF2B98"/>
    <g clip-path="url(#clip0_402_518)">
        <path d="M8.5946 6.65543C8.78212 6.70623 8.96126 6.78654 9.12595 6.89363C9.28433 6.99622 9.42206 7.13045 9.53136 7.28873C9.6428 7.45085 9.70839 7.64281 9.72055 7.84245V10.1335H8.92163V9.05845H7.43568V8.21822H8.92163V8.013C8.91527 7.9062 8.88063 7.80341 8.82163 7.71624C8.7631 7.62964 8.68978 7.55524 8.60541 7.4968C8.51761 7.43648 8.42154 7.39066 8.32055 7.36093C8.2241 7.33136 8.12425 7.31586 8.02379 7.31489C7.82699 7.31071 7.63295 7.36404 7.46325 7.46895C7.30224 7.56975 7.18362 7.73108 7.13136 7.92033V10.1335H6.33136V7.83563C6.344 7.64272 6.4058 7.45695 6.51028 7.29783C6.61513 7.13911 6.74889 7.00386 6.90379 6.89989C7.06872 6.7896 7.24913 6.7073 7.43839 6.656C7.63226 6.60093 7.83216 6.57284 8.03298 6.57243C8.2228 6.57465 8.41156 6.60255 8.5946 6.65543V6.65543Z"
              fill="white"/>
        <path d="M9.44757 5H9.43892H8.89568H8.88811H8.72216H8.71351H8.17135H8.1627H7.66054H7.65297H7.11027H7.10162H6.55892H6.55081H6V5.88969H6.55081H6.55892H7.10162H7.11027H7.65297H7.66054H8.1627H8.17135H8.71351H8.72216H8.88811H8.89568H9.43892H9.44757H10V5H9.44757Z"
              fill="white"/>
        <path d="M9.44757 10.7986H9.43892H8.89568H8.88811H8.72216H8.71351H8.17135H8.1627H7.66054H7.65297H7.11027H7.10162H6.55892H6.55081H6V11.6883H6.55081H6.55892H7.10162H7.11027H7.65297H7.66054H8.1627H8.17135H8.71351H8.72216H8.88811H8.89568H9.43892H9.44757H10V10.7986H9.44757Z"
              fill="white"/>
    </g>
    <defs>
        <clipPath id="clip0_402_518">
            <rect width="4" height="6.68832" fill="white" transform="translate(6 5)"/>
        </clipPath>
    </defs>
</svg>
